<svg xmlns="http://www.w3.org/2000/svg" viewBox="0 0 200 200" fill="none">
  <!-- Star 1 -->
  <circle cx="50" cy="50" r="5" fill="#D4C1F3" /> <!-- Soft white/purple -->

  <!-- Star 2 -->
  <circle cx="150" cy="30" r="3" fill="#98A1F3" /> <!-- Light blue -->

  <!-- Star 3 -->
  <circle cx="100" cy="150" r="4" fill="#E6E6FA" /> <!-- Lavender white -->

  <!-- Bitcoin Icon -->
  <path d="M100,80 A20,20 0 1,0 100,120 A20,20 0 1,0 100,80" fill="#5C5F97" /> <!-- Muted deep purple -->
  <text x="92" y="105" font-family="Arial" font-size="12" fill="#F3E9FF">₿</text> <!-- Soft lavender -->

  <!-- Ethereum Icon -->
  <polygon points="160,100 170,130 150,130" fill="#8D83D1" /> <!-- Darker blue/purple -->
  <polygon points="160,100 160,70 150,90" fill="#C7B8F4" /> <!-- Light complementary purple -->
  <polygon points="160,70 170,90 160,100" fill="#A99AD6" /> <!-- Middle-tone purple -->

  <!-- Blockchain Link Icon -->
  <rect x="30" y="160" width="20" height="10" fill="#6B7096" /> <!-- Complementary deep blue -->
  <rect x="60" y="160" width="20" height="10" fill="#6B7096" />
  <rect x="90" y="160" width="20" height="10" fill="#6B7096" />
  <circle cx="55" cy="165" r="3" fill="#F3E9FF" /> <!-- Lavender white -->
  <circle cx="85" cy="165" r="3" fill="#F3E9FF" />

  <!-- Star 4 -->
  <circle cx="30" cy="70" r="2" fill="#E6E6FA" /> <!-- Lavender white -->

  <!-- Star 5 -->
  <circle cx="180" cy="170" r="4" fill="#D4C1F3" /> <!-- Soft white/purple -->

  <!-- Star 6 -->
  <circle cx="80" cy="40" r="3" fill="#C7B8F4" /> <!-- Light complementary purple -->
</svg>